HIERARCHY
ROOT root
{
	OFFSET 0.000000 0.000000 0.000000
	CHANNELS 6 Xposition Yposition Zposition Zrotation Yrotation Xrotation
	JOINT lhip
	{
		OFFSET 0.058581 -0.082280 -0.017664
		CHANNELS 3 Zrotation Yrotation Xrotation
		JOINT lknee
		{
			OFFSET 0.043451 -0.386469 0.008037
			CHANNELS 3 Zrotation Yrotation Xrotation
			JOINT lankle
			{
				OFFSET -0.014790 -0.426874 -0.037428
				CHANNELS 3 Zrotation Yrotation Xrotation
				JOINT ltoe
				{
					OFFSET 0.041054 -0.060286 0.122042
					CHANNELS 3 Zrotation Yrotation Xrotation
					End Site
					{
						OFFSET 0.000000 0.000000 0.000000
					}
				}
			}
		}
	}
	JOINT rhip
	{
		OFFSET -0.060310 -0.090513 -0.013543
		CHANNELS 3 Zrotation Yrotation Xrotation
		JOINT rknee
		{
			OFFSET -0.043257 -0.383688 -0.004843
			CHANNELS 3 Zrotation Yrotation Xrotation
			JOINT rankle
			{
				OFFSET 0.019056 -0.420046 -0.034562
				CHANNELS 3 Zrotation Yrotation Xrotation
				JOINT rtoe
				{
					OFFSET -0.034840 -0.062106 0.130323
					CHANNELS 3 Zrotation Yrotation Xrotation
					End Site
					{
						OFFSET 0.000000 0.000000 0.000000
					}
				}
			}
		}
	}
	JOINT lowerback
	{
		OFFSET 0.004439 0.124404 -0.038385
		CHANNELS 3 Zrotation Yrotation Xrotation
		JOINT upperback
		{
			OFFSET 0.004488 0.137956 0.026820
			CHANNELS 3 Zrotation Yrotation Xrotation
			JOINT chest
			{
				OFFSET -0.002265 0.056032 0.002855
				CHANNELS 3 Zrotation Yrotation Xrotation
				JOINT lowerneck
				{
					OFFSET -0.013390 0.211636 -0.033468
					CHANNELS 3 Zrotation Yrotation Xrotation
					JOINT upperneck
					{
						OFFSET 0.010113 0.088937 0.050410
						CHANNELS 3 Zrotation Yrotation Xrotation
						End Site
						{
							OFFSET 0.000000 0.000000 0.000000
						}
					}
				}
				JOINT lclavicle
				{
					OFFSET 0.071702 0.114000 -0.018898
					CHANNELS 3 Zrotation Yrotation Xrotation
					JOINT lshoulder
					{
						OFFSET 0.122921 0.045205 -0.019046
						CHANNELS 3 Zrotation Yrotation Xrotation
						JOINT lelbow
						{
							OFFSET 0.255332 -0.015649 -0.022946
							CHANNELS 3 Zrotation Yrotation Xrotation
							JOINT lwrist
							{
								OFFSET 0.265709 0.012698 -0.007375
								CHANNELS 3 Zrotation Yrotation Xrotation
								End Site
								{
									OFFSET 0.000000 0.000000 0.000000
								}
							}
						}
					}
				}
				JOINT rclavicle
				{
					OFFSET -0.082954 0.112472 -0.023707
					CHANNELS 3 Zrotation Yrotation Xrotation
					JOINT rshoulder
					{
						OFFSET -0.113228 0.046853 -0.008472
						CHANNELS 3 Zrotation Yrotation Xrotation
						JOINT relbow
						{
							OFFSET -0.260127 -0.014369 -0.031269
							CHANNELS 3 Zrotation Yrotation Xrotation
							JOINT rwrist
							{
								OFFSET -0.269108 0.006794 -0.006027
								CHANNELS 3 Zrotation Yrotation Xrotation
								End Site
								{
									OFFSET 0.000000 0.000000 0.000000
								}
							}
						}
					}
				}
			}
		}
	}
}
MOTION
Frames: 10
Frame Time: 0.033333
1.237047 0.737399 0.913714 112.882864 2.036896 85.898126 12.317812 7.004165 -19.391744 -8.755127 10.708189 48.190417 2.454313 10.145214 -29.528474 0.000000 -0.000000 0.000000 -1.427362 1.080216 -26.614209 2.987729 -7.650198 54.423885 1.333089 -5.732947 -26.687741 0.000000 -0.000000 0.000000 -1.952924 -2.946400 27.809125 3.564131 -4.008063 -0.780641 1.127946 -3.430910 2.780382 6.937325 -3.891797 -4.137833 5.114500 -10.953295 2.014190 -16.350232 -8.511825 -0.546549 -30.449866 -11.161991 6.010097 33.412235 -79.790310 -22.645162 7.316513 -15.152525 -15.890103 13.576077 11.844194 -4.553715 35.919921 15.259434 14.111580 1.181656 82.834837 19.856975 10.274989 10.645010 -7.766666 
1.237271 0.739342 0.914287 112.715923 1.974130 86.018384 12.115331 7.008366 -19.315636 -8.688410 10.799212 48.016332 2.507922 10.209152 -29.555125 0.000000 -0.000000 0.000000 -1.567373 1.063938 -26.585107 2.962508 -7.570210 54.220817 1.357928 -5.687650 -26.681568 0.000000 -0.000000 0.000000 -1.837451 -2.937251 27.700814 3.526313 -3.964393 -0.700986 1.117087 -3.379805 2.804990 6.906988 -3.879024 -4.178769 5.078665 -10.839514 1.834304 -16.388302 -8.571796 -0.560802 -30.605047 -11.204911 6.055841 32.786888 -79.733943 -21.993634 7.197049 -15.209470 -15.771298 13.488518 11.858257 -4.562695 36.002423 15.296548 14.035692 0.083900 82.746536 18.768337 10.722882 10.587779 -7.726659 
1.236727 0.741110 0.915307 112.452308 2.021922 86.227529 12.008683 7.055775 -19.438386 -8.586059 10.902597 47.976782 2.486754 10.234172 -29.485373 0.000000 -0.000000 0.000000 -1.610887 1.122604 -26.758232 2.886344 -7.520687 54.056402 1.453282 -5.421854 -26.421212 0.000000 -0.000000 0.000000 -1.678944 -2.979926 27.768490 3.479616 -3.913458 -0.865179 1.187873 -3.310949 2.830350 6.762384 -3.867003 -3.726461 5.223782 -10.401971 1.186841 -15.870197 -8.626907 -0.719532 -31.071935 -11.327879 6.003847 30.590935 -79.434956 -19.600981 6.456945 -15.342030 -15.806867 12.539092 11.829534 -4.766788 36.646204 15.547750 13.955919 2.141567 82.382689 21.151974 11.925927 10.460100 -7.702291 
1.233957 0.742050 0.916074 112.204038 2.188431 86.418007 11.935622 7.090049 -20.222228 -8.220360 11.033468 48.938469 2.274476 10.134991 -29.234494 0.000000 -0.000000 0.000000 -1.477578 1.432638 -27.523575 2.375090 -7.544711 54.630001 1.782481 -4.794233 -25.604220 0.000000 -0.000000 0.000000 -1.474322 -3.112800 28.461976 3.311414 -3.985321 -1.438654 1.368011 -3.206603 3.092860 6.251912 -4.078092 -1.997484 6.172184 -8.790133 -1.217534 -13.271975 -8.925360 -1.482023 -32.079387 -12.026099 5.328076 26.254730 -78.140879 -15.100426 3.599226 -15.761922 -16.583089 8.865672 11.784925 -5.727541 38.648203 16.401773 13.650002 8.950065 81.885335 28.872779 16.279693 10.301872 -8.471902 
1.225908 0.741399 0.914508 111.906460 2.449392 86.460653 11.927041 7.100504 -22.269180 -7.608748 11.303803 51.620165 1.894064 10.379413 -28.672748 0.000000 -0.000000 0.000000 -1.333902 2.369527 -29.608041 1.573950 -7.591437 56.953331 2.643453 -4.412015 -24.025553 0.000000 -0.000000 0.000000 -1.253947 -3.558057 30.786012 2.800574 -4.223643 -2.340778 1.629855 -3.046981 3.549020 4.822812 -4.517519 0.603457 7.828506 -5.418253 -5.415028 -8.377597 -10.384989 -2.875298 -31.906500 -12.664434 3.560003 29.491075 -76.284363 -19.900761 4.968802 -15.297752 -18.352389 2.267819 12.677045 -7.448573 40.231990 17.727604 12.836220 19.556290 83.304461 39.681743 18.323599 10.589796 -10.338427 
1.212489 0.738514 0.905699 111.516678 2.994684 86.975278 12.400115 7.315719 -25.799769 -6.986020 11.841446 54.819180 1.858761 11.428349 -28.586433 0.000000 -0.000000 0.000000 -1.378771 3.831264 -34.008369 1.056231 -7.983914 61.106831 4.126945 -5.268810 -22.766754 0.000000 -0.000000 0.000000 -1.216889 -4.345091 34.378628 2.100674 -4.459841 -3.215119 2.006648 -3.000025 4.216691 3.323062 -3.986957 2.164646 8.976965 -1.159120 -10.971566 -1.849606 -11.974033 -5.261563 -29.650204 -12.591386 -0.028828 42.890444 -74.830118 -33.526887 13.486791 -12.960943 -18.174659 -6.260776 13.680059 -10.061751 40.493069 18.905373 11.573110 57.488005 88.137307 78.981800 7.941871 10.640401 -9.118474 
1.198003 0.734446 0.886676 111.346210 3.873271 88.751207 13.193575 8.274112 -30.650182 -6.067212 12.604073 57.912917 2.518470 12.285448 -29.874825 0.000000 -0.000000 0.000000 -1.237155 4.581645 -39.858772 0.362726 -8.894923 64.860827 4.599315 -6.878369 -23.202356 0.000000 -0.000000 0.000000 -1.421514 -4.839108 37.318172 1.989911 -4.640243 -4.338856 2.467298 -3.218062 5.128341 2.813077 -2.181960 1.700278 9.137820 1.160793 -14.816185 5.152546 -11.541464 -8.502019 -26.729896 -13.434407 -5.052477 53.645727 -72.675650 -43.208476 19.059576 -11.199827 -18.137618 -13.970548 12.259078 -12.754368 40.467169 20.300317 9.491082 -155.443853 84.167158 -131.873555 -4.577522 10.956111 -8.161118 
1.186871 0.730359 0.863133 111.333141 4.588127 90.960244 14.137701 9.697361 -36.366123 -5.262816 13.409882 62.287838 2.581571 11.731026 -30.902614 0.000000 -0.000000 0.000000 -0.548383 4.589297 -44.542581 -0.598710 -9.443135 67.050228 3.270983 -8.071118 -25.691909 0.000000 -0.000000 0.000000 -2.036085 -4.476810 39.364222 2.666468 -4.878622 -5.822156 3.008652 -3.473359 5.725192 2.786215 0.218986 0.132241 8.853989 1.385482 -15.850755 9.988836 -10.193346 -11.186464 -23.074738 -14.765770 -9.208789 58.042025 -71.370909 -47.332280 18.883155 -10.813487 -18.477810 -17.257393 9.550678 -15.024813 39.824403 22.113362 6.690773 -143.336723 77.692444 -119.172322 -6.256927 10.532958 -10.906694 
1.180234 0.727350 0.842713 111.350561 4.900874 91.991077 14.946683 10.657380 -40.525624 -5.022116 13.982717 66.467308 2.222544 11.189505 -31.371906 0.000000 -0.000000 0.000000 -0.506733 4.818668 -47.982138 -1.027946 -9.724236 69.727163 2.723861 -8.718322 -27.118517 0.000000 -0.000000 0.000000 -2.734088 -4.106911 41.730458 3.184377 -4.939987 -6.907694 3.403492 -3.553584 5.606281 2.279588 2.121019 -1.639526 8.389896 1.373356 -16.135344 11.925448 -10.471697 -12.488583 -19.005943 -14.789198 -11.738669 62.576715 -70.628431 -51.705104 17.419499 -11.206194 -17.527165 -17.149805 8.874059 -16.658535 38.251298 23.399965 4.199010 -138.409941 73.697207 -113.590236 -4.244358 10.313947 -11.071319 
1.176478 0.725388 0.828524 111.351405 5.265072 91.928769 15.642071 11.064183 -42.475278 -4.860252 14.169540 69.220222 1.990143 11.068589 -31.831294 0.000000 -0.000000 0.000000 -0.817649 5.208305 -50.076247 -1.047639 -10.353458 72.167062 2.741911 -9.125175 -27.490026 0.000000 -0.000000 0.000000 -2.968676 -4.258346 44.284899 3.245503 -4.648996 -7.498490 3.484845 -3.236436 5.182468 1.672918 2.968922 -3.334020 8.294349 1.290863 -16.004874 12.035341 -12.042588 -13.138179 -16.135592 -14.585341 -12.939655 66.097715 -69.794168 -55.711840 16.853340 -11.547261 -16.299658 -16.628389 10.309903 -17.162361 36.946267 23.532401 2.875751 -135.107373 71.389624 -110.453469 -3.391288 10.173254 -11.370805 
